<?xml version="1.0" encoding="UTF-8" standalone="no"?>
<!-- Generator: Adobe Illustrator 19.0.0, SVG Export Plug-In . SVG Version: 6.00 Build 0)  -->

<svg
   xmlns:dc="http://purl.org/dc/elements/1.1/"
   xmlns:cc="http://creativecommons.org/ns#"
   xmlns:rdf="http://www.w3.org/1999/02/22-rdf-syntax-ns#"
   xmlns:svg="http://www.w3.org/2000/svg"
   xmlns="http://www.w3.org/2000/svg"
   xmlns:sodipodi="http://sodipodi.sourceforge.net/DTD/sodipodi-0.dtd"
   xmlns:inkscape="http://www.inkscape.org/namespaces/inkscape"
   version="1.1"
   id="Capa_1"
   x="0px"
   y="0px"
   viewBox="0 0 60 60"
   style="enable-background:new 0 0 60 60;"
   xml:space="preserve"
   inkscape:version="0.91 r13725"
   sodipodi:docname="cloud-computing.svg"
   inkscape:export-filename="/var/www/html/webexts/netmon/stuff/cloud-computing.png"
   inkscape:export-xdpi="90"
   inkscape:export-ydpi="90"><metadata
     id="metadata47"><rdf:RDF><cc:Work
         rdf:about=""><dc:format>image/svg+xml</dc:format><dc:type
           rdf:resource="http://purl.org/dc/dcmitype/StillImage" /><dc:title /></cc:Work></rdf:RDF></metadata><defs
     id="defs45" /><sodipodi:namedview
     pagecolor="#ffffff"
     bordercolor="#666666"
     borderopacity="1"
     objecttolerance="10"
     gridtolerance="10"
     guidetolerance="10"
     inkscape:pageopacity="0"
     inkscape:pageshadow="2"
     inkscape:window-width="1280"
     inkscape:window-height="953"
     id="namedview43"
     showgrid="false"
     inkscape:zoom="4.5372685"
     inkscape:cx="-26.464367"
     inkscape:cy="34.862428"
     inkscape:window-x="0"
     inkscape:window-y="0"
     inkscape:window-maximized="1"
     inkscape:current-layer="Capa_1" /><path
     style="fill:#4b8bf5;stroke:#7383BF;stroke-width:2;stroke-linecap:round;stroke-miterlimit:10;fill-opacity:1"
     d="M50.003,20  c-0.115-8.699-7.193-16-15.919-16c-5.559,0-10.779,3.005-13.661,7.336C19.157,10.493,17.636,10,16,10c-4.418,0-8,3.582-8,8  c0,0.153,0.014,0.302,0.023,0.454C8.013,18.636,8,18.82,8,19c-3.988,1.912-7,6.457-7,11.155C1,36.67,6.33,42,12.845,42h24.507  c0.138,0,0.272-0.016,0.408-0.021C37.897,41.984,38.031,42,38.169,42h9.803C54.037,42,59,37.037,59,30.972  C59,25.601,55.106,20.961,50.003,20z"
     id="path3"
     inkscape:export-xdpi="90"
     inkscape:export-ydpi="90" /><path
     style="fill:#7FABDA;stroke:#7383BF;stroke-width:2;stroke-linecap:round;stroke-miterlimit:10;"
     d="M50.003,20  c0,0-2.535-0.375-5.003,0"
     id="path5"
     inkscape:export-xdpi="90"
     inkscape:export-ydpi="90" /><path
     style="fill:#4b8bf5;stroke:#7383BF;stroke-width:2;stroke-linecap:round;stroke-miterlimit:10;fill-opacity:1"
     d="M8,18c0-4.418,3.582-8,8-8  s8,3.582,8,8"
     id="path7"
     inkscape:export-xdpi="90"
     inkscape:export-ydpi="90" /><circle
     style="fill:#E7ECED;stroke:#424A60;stroke-width:2;stroke-linecap:round;stroke-miterlimit:10;"
     cx="31"
     cy="39"
     r="10"
     id="circle9"
     inkscape:export-xdpi="90"
     inkscape:export-ydpi="90" /><line
     style="fill:none;stroke:#424A60;stroke-width:2;stroke-linecap:round;stroke-miterlimit:10;"
     x1="38.071"
     y1="46.071"
     x2="48"
     y2="56"
     id="line11"
     inkscape:export-xdpi="90"
     inkscape:export-ydpi="90" /><g
     id="g13" /><g
     id="g15" /><g
     id="g17" /><g
     id="g19" /><g
     id="g21" /><g
     id="g23" /><g
     id="g25" /><g
     id="g27" /><g
     id="g29" /><g
     id="g31" /><g
     id="g33" /><g
     id="g35" /><g
     id="g37" /><g
     id="g39" /><g
     id="g41" /></svg>